<svg width="909" height="700" viewBox="0 0 909 700" fill="none" xmlns="http://www.w3.org/2000/svg">
<g clip-path="url(#clip0)">
<path d="M787.506 570.671C785.316 553.506 792.176 535.837 788.098 519.032C784.961 506.051 775.668 495.213 772.614 482.209C768.127 462.936 778.391 443.143 791.49 428.345C800.499 418.145 811.805 408.889 825.283 407.036C833.605 405.852 842.158 407.681 849.841 411.073C857.654 414.576 864.66 419.652 870.424 425.983C876.188 432.315 880.585 439.766 883.341 447.873C885.117 453.141 886.141 458.652 888.325 463.76C892.084 472.56 898.98 479.66 903.271 488.224C906.132 494.026 907.748 500.362 908.016 506.826C908.284 513.289 907.198 519.737 904.828 525.757C899.862 538.152 889.438 548.522 887.899 561.787C886.78 571.346 890.367 581.817 885.709 590.24C882.193 596.597 874.954 599.805 868.1 602.209C852.172 607.749 829.88 616.746 813.9 608.181C799.923 600.693 789.535 586.515 787.506 570.671Z" fill="#E6E6E6"/>
<path d="M832.254 577.869C832.254 577.869 849.735 570.817 851.939 566.85C854.143 562.883 857.228 539.522 857.228 539.522" stroke="#D0CDE1" stroke-width="3" stroke-miterlimit="10"/>
<path d="M832.029 696.9L832.562 526.5" stroke="#D0CDE1" stroke-width="3" stroke-miterlimit="10"/>
<path d="M700.196 514.518C697.656 494.607 705.613 474.112 700.883 454.618C697.244 439.561 686.464 426.989 682.922 411.905C677.722 389.549 689.622 366.589 704.822 349.424C715.272 337.594 728.386 326.855 744.022 324.706C753.676 323.333 763.597 325.454 772.509 329.389C781.572 333.453 789.7 339.34 796.386 346.684C803.073 354.029 808.174 362.672 811.371 372.075C813.431 378.186 814.619 384.575 817.152 390.503C821.512 400.713 829.511 408.952 834.489 418.88C837.807 425.611 839.682 432.961 839.993 440.458C840.304 447.956 839.044 455.435 836.295 462.417C830.535 476.794 818.443 488.824 816.658 504.21C815.358 515.299 819.521 527.445 814.118 537.21C810.04 544.584 801.642 548.31 793.692 551.093C775.216 557.52 749.358 567.956 730.82 558.021C714.594 549.342 702.545 532.898 700.196 514.518Z" fill="#4885ED"/>
<path d="M751.836 696.9V460.023" stroke="#333333" stroke-width="3" stroke-miterlimit="10"/>
<path d="M752.097 528.67C752.097 528.67 779.328 517.684 782.761 511.505C786.194 505.326 790.997 468.936 790.997 468.936" stroke="#333333" stroke-width="3" stroke-miterlimit="10"/>
<path d="M638.079 0.0602503L302.062 0.881296C288.255 0.915033 277.089 12.1352 277.123 25.9423L278.703 672.703C278.737 686.51 289.957 697.676 303.764 697.642L639.781 696.821C653.589 696.787 664.754 685.567 664.72 671.76L663.14 24.9991C663.106 11.192 651.886 0.0265132 638.079 0.0602503Z" fill="#2F2E41"/>
<path d="M651.05 657.626C651.062 661.43 649.563 665.083 646.883 667.782C644.203 670.481 640.561 672.005 636.757 672.02L306.918 672.82C303.114 672.826 299.464 671.32 296.769 668.635C294.075 665.95 292.557 662.305 292.549 658.501L292.323 561.584L291.062 39.0132C291.05 35.2094 292.548 31.5563 295.229 28.857C297.909 26.1577 301.551 24.6331 305.355 24.6183L374.341 24.4563C375.445 31.6764 379.093 38.2641 384.628 43.0304C390.162 47.7968 397.218 50.4276 404.522 50.4482L534.862 50.1353C542.185 50.1044 549.255 47.4508 554.79 42.6554C560.325 37.8601 563.958 31.2404 565.032 23.9963L635.096 23.8233C638.9 23.8182 642.55 25.3236 645.244 28.0086C647.938 30.6937 649.456 34.3386 649.464 38.1422L650.811 561.584L651.05 657.626Z" fill="white"/>
<path d="M651.049 664.216C651.095 668.067 649.61 671.779 646.92 674.535C644.231 677.291 640.557 678.867 636.706 678.916L305.706 679.732C301.856 679.704 298.174 678.149 295.47 675.407C292.766 672.666 291.262 668.963 291.287 665.112L291.062 566.154H650.812L651.049 664.216Z" fill="#E6E6E6"/>
<path d="M507.889 25.2672L425.877 26.4983C424.772 26.5149 423.89 27.4236 423.907 28.5281L423.928 29.9079C423.944 31.0124 424.853 31.8943 425.957 31.8777L507.97 30.6466C509.075 30.63 509.957 29.7213 509.94 28.6168L509.919 27.237C509.903 26.1325 508.994 25.2506 507.889 25.2672Z" fill="white"/>
<path d="M528.236 30.3332C530.02 30.3064 531.445 28.8383 531.418 27.0541C531.391 25.2698 529.923 23.8451 528.139 23.8719C526.354 23.8987 524.93 25.3668 524.956 27.151C524.983 28.9353 526.451 30.36 528.236 30.3332Z" fill="white"/>
<path d="M368.504 113.963H321.563C315.764 113.963 311.063 118.664 311.063 124.463V171.404C311.063 177.203 315.764 181.904 321.563 181.904H368.504C374.303 181.904 379.004 177.203 379.004 171.404V124.463C379.004 118.664 374.303 113.963 368.504 113.963Z" fill="#E6E6E6"/>
<path d="M452.369 113.963H405.428C399.629 113.963 394.928 118.664 394.928 124.463V171.404C394.928 177.203 399.629 181.904 405.428 181.904H452.369C458.168 181.904 462.869 177.203 462.869 171.404V124.463C462.869 118.664 458.168 113.963 452.369 113.963Z" fill="#E6E6E6"/>
<path d="M536.234 113.963H489.293C483.494 113.963 478.793 118.664 478.793 124.463V171.404C478.793 177.203 483.494 181.904 489.293 181.904H536.234C542.033 181.904 546.734 177.203 546.734 171.404V124.463C546.734 118.664 542.033 113.963 536.234 113.963Z" fill="#E6E6E6"/>
<path d="M620.099 113.963H573.158C567.359 113.963 562.658 118.664 562.658 124.463V171.404C562.658 177.203 567.359 181.904 573.158 181.904H620.099C625.898 181.904 630.599 177.203 630.599 171.404V124.463C630.599 118.664 625.898 113.963 620.099 113.963Z" fill="#E6E6E6"/>
<path d="M368.48 215.807H321.563C315.764 215.807 311.063 220.508 311.063 226.307V273.224C311.063 279.023 315.764 283.724 321.563 283.724H368.48C374.279 283.724 378.98 279.023 378.98 273.224V226.307C378.98 220.508 374.279 215.807 368.48 215.807Z" fill="#4885ED"/>
<path d="M452.314 215.807H405.397C399.598 215.807 394.897 220.508 394.897 226.307V273.224C394.897 279.023 399.598 283.724 405.397 283.724H452.314C458.113 283.724 462.814 279.023 462.814 273.224V226.307C462.814 220.508 458.113 215.807 452.314 215.807Z" fill="#E6E6E6"/>
<path d="M536.149 215.807H489.232C483.433 215.807 478.732 220.508 478.732 226.307V273.224C478.732 279.023 483.433 283.724 489.232 283.724H536.149C541.948 283.724 546.649 279.023 546.649 273.224V226.307C546.649 220.508 541.948 215.807 536.149 215.807Z" fill="#E6E6E6"/>
<path d="M619.983 215.807H573.066C567.267 215.807 562.566 220.508 562.566 226.307V273.224C562.566 279.023 567.267 283.724 573.066 283.724H619.983C625.782 283.724 630.483 279.023 630.483 273.224V226.307C630.483 220.508 625.782 215.807 619.983 215.807Z" fill="#E6E6E6"/>
<path d="M368.504 317.786H321.563C315.764 317.786 311.063 322.487 311.063 328.286V375.227C311.063 381.026 315.764 385.727 321.563 385.727H368.504C374.303 385.727 379.004 381.026 379.004 375.227V328.286C379.004 322.487 374.303 317.786 368.504 317.786Z" fill="#E6E6E6"/>
<path d="M452.369 317.786H405.428C399.629 317.786 394.928 322.487 394.928 328.286V375.227C394.928 381.026 399.629 385.727 405.428 385.727H452.369C458.168 385.727 462.869 381.026 462.869 375.227V328.286C462.869 322.487 458.168 317.786 452.369 317.786Z" fill="#E6E6E6"/>
<path d="M536.234 317.786H489.293C483.494 317.786 478.793 322.487 478.793 328.286V375.227C478.793 381.026 483.494 385.727 489.293 385.727H536.234C542.033 385.727 546.734 381.026 546.734 375.227V328.286C546.734 322.487 542.033 317.786 536.234 317.786Z" fill="#E6E6E6"/>
<path d="M620.099 317.786H573.158C567.359 317.786 562.658 322.487 562.658 328.286V375.227C562.658 381.026 567.359 385.727 573.158 385.727H620.099C625.898 385.727 630.599 381.026 630.599 375.227V328.286C630.599 322.487 625.898 317.786 620.099 317.786Z" fill="#E6E6E6"/>
<path d="M368.504 419.698H321.563C315.764 419.698 311.063 424.399 311.063 430.198V477.139C311.063 482.938 315.764 487.639 321.563 487.639H368.504C374.303 487.639 379.004 482.938 379.004 477.139V430.198C379.004 424.399 374.303 419.698 368.504 419.698Z" fill="#E6E6E6"/>
<path d="M452.369 419.698H405.428C399.629 419.698 394.928 424.399 394.928 430.198V477.139C394.928 482.938 399.629 487.639 405.428 487.639H452.369C458.168 487.639 462.869 482.938 462.869 477.139V430.198C462.869 424.399 458.168 419.698 452.369 419.698Z" fill="#E6E6E6"/>
<path d="M536.234 419.698H489.293C483.494 419.698 478.793 424.399 478.793 430.198V477.139C478.793 482.938 483.494 487.639 489.293 487.639H536.234C542.033 487.639 546.734 482.938 546.734 477.139V430.198C546.734 424.399 542.033 419.698 536.234 419.698Z" fill="#E6E6E6"/>
<path d="M620.099 419.698H573.158C567.359 419.698 562.658 424.399 562.658 430.198V477.139C562.658 482.938 567.359 487.639 573.158 487.639H620.099C625.898 487.639 630.599 482.938 630.599 477.139V430.198C630.599 424.399 625.898 419.698 620.099 419.698Z" fill="#E6E6E6"/>
<path d="M366.062 588.205H316.498C310.699 588.205 305.998 592.906 305.998 598.705V648.269C305.998 654.068 310.699 658.769 316.498 658.769H366.062C371.861 658.769 376.562 654.068 376.562 648.269V598.705C376.562 592.906 371.861 588.205 366.062 588.205Z" fill="#4885ED"/>
<path d="M453.164 588.205H403.6C397.801 588.205 393.1 592.906 393.1 598.705V648.269C393.1 654.068 397.801 658.769 403.6 658.769H453.164C458.963 658.769 463.664 654.068 463.664 648.269V598.705C463.664 592.906 458.963 588.205 453.164 588.205Z" fill="#4885ED"/>
<path d="M540.267 588.205H490.703C484.904 588.205 480.203 592.906 480.203 598.705V648.269C480.203 654.068 484.904 658.769 490.703 658.769H540.267C546.066 658.769 550.767 654.068 550.767 648.269V598.705C550.767 592.906 546.066 588.205 540.267 588.205Z" fill="#4885ED"/>
<path d="M627.369 588.205H577.805C572.006 588.205 567.305 592.906 567.305 598.705V648.269C567.305 654.068 572.006 658.769 577.805 658.769H627.369C633.168 658.769 637.869 654.068 637.869 648.269V598.705C637.869 592.906 633.168 588.205 627.369 588.205Z" fill="#4885ED"/>
<path d="M294.489 238.173V253.639L276.062 280.639L294.489 292.633C294.489 292.633 302.679 261.079 307.095 257.365C307.095 257.365 314.03 252.417 317.804 245.612C321.578 238.807 319.691 215.292 301.415 236.328V238.805L294.489 238.173Z" fill="#FDA57D"/>
<path d="M150.938 266.066L158.238 251.473C158.45 251.044 158.773 250.678 159.174 250.415C159.574 250.151 160.037 249.999 160.516 249.973L188.226 248.558C188.676 248.535 189.125 248.624 189.532 248.818C189.939 249.013 190.291 249.306 190.556 249.671C190.82 250.036 190.989 250.462 191.047 250.909C191.104 251.356 191.049 251.811 190.886 252.231L183.737 270.713C183.526 271.26 183.142 271.724 182.644 272.033C182.146 272.343 181.561 272.482 180.977 272.429L153.126 269.95C152.688 269.912 152.267 269.768 151.898 269.531C151.528 269.293 151.223 268.968 151.007 268.586C150.792 268.203 150.673 267.774 150.661 267.335C150.649 266.896 150.744 266.46 150.938 266.066Z" fill="#FDA57D"/>
<path d="M152.988 259.804L148.281 273.604L196.616 271.868L178.049 260.728L152.988 259.804Z" fill="#EDEEF9"/>
<path d="M133.666 410.621C135.607 420.169 134.465 430.087 130.404 438.944C123.604 453.176 123.604 468.05 132.261 485.352L134.74 575.077C134.74 575.077 137.831 617.16 134.74 625.821C131.649 634.482 135.954 675.953 135.954 675.953H170.61V648.101L182.363 565.801V523.711L203.439 567.65L179.351 669.139L210.905 682.139L250.505 568.276C250.505 568.276 243.64 478.551 218.89 447.618L214.233 413.886L133.666 410.621Z" fill="#3F3D56"/>
<path d="M135.352 696.846V673.953H170.62C170.62 673.953 173.099 683.237 189.187 685.093C205.275 686.949 181.76 698.093 181.76 698.093L135.352 696.846Z" fill="#3F3D56"/>
<path d="M174.45 686.594L180.59 664.514L211.127 674.214C211.127 674.214 214.463 683.587 229.467 689.689C239.685 693.845 228.554 698.624 228.554 698.624L224.537 699.661L174.45 686.594Z" fill="#3F3D56"/>
<path opacity="0.1" d="M214.237 415.74L133.655 412.478C134.653 417.283 134.86 422.219 134.267 427.091C137.95 435.762 145.859 433.391 145.859 433.391L216.365 431.223L214.237 415.74Z" fill="black"/>
<path d="M149.896 268.465L146.684 270.643C136.965 277.226 129.373 286.496 124.833 297.321C120.294 308.146 119.004 320.058 121.121 331.604V331.604C121.121 331.604 139.066 366.731 133.496 401.859C127.926 436.987 145.871 431.567 145.871 431.567L216.726 429.385L221.985 322.849C221.985 322.849 264.68 328.921 283.869 314.067L299.336 290.435L275.821 274.206L267.796 285.685C267.796 285.685 242.596 280.366 228.754 274.745C222.298 272.111 215.428 270.64 208.46 270.399L149.896 268.465Z" fill="#4885ED"/>
<path opacity="0.1" d="M150.516 439.877C150.516 439.877 146.18 461.536 170.94 497.426Z" fill="black"/>
<path opacity="0.1" d="M222.267 322.923C222.267 322.923 251.967 313.023 264.962 313.023C277.957 313.023 275.791 318.633 275.791 318.633C275.791 318.633 255.096 327.871 222.267 322.923Z" fill="black"/>
<path opacity="0.1" d="M188.615 249.817L176.792 251.232C176.421 251.232 176.079 251.744 175.879 252.476C178.479 257.163 181.73 259.953 185.263 259.953C186.524 259.935 187.758 259.59 188.846 258.953L189.746 253.483C190.05 251.664 189.448 249.717 188.615 249.817Z" fill="black"/>
<path d="M180.365 258.71C200.297 258.71 216.456 242.552 216.456 222.619C216.456 202.687 200.297 186.528 180.365 186.528C160.432 186.528 144.274 202.687 144.274 222.619C144.274 242.552 160.432 258.71 180.365 258.71Z" fill="#FDA57D"/>
<path opacity="0.1" d="M211.067 202.184L209.22 203.85C208.446 204.559 207.864 205.45 207.526 206.444C207.188 207.437 207.106 208.499 207.287 209.532C207.468 210.565 207.906 211.536 208.562 212.355C209.217 213.174 210.069 213.815 211.037 214.218V214.218C211.037 214.218 194.868 230.387 192.62 233.388C190.372 236.389 192.991 244.288 192.991 244.288C192.991 244.288 200.137 257.446 162.541 254.435C162.541 254.435 137.731 249.176 140.361 215.715C140.622 212.363 135.102 203.671 151.642 199.175C152.137 194.478 154.082 190.052 157.205 186.509C160.329 182.966 164.477 180.483 169.075 179.403C175.469 177.813 182.073 177.234 188.646 177.687C194.77 178.225 200.471 181.039 204.622 185.574C208.773 190.109 211.072 196.036 211.067 202.184V202.184Z" fill="black"/>
<path d="M211.849 200.217C211.849 200.217 215.683 201.401 215.864 213.977L210.414 213.606C210.414 213.606 197.808 247.328 199.133 242.932C204.021 226.763 194.245 229.774 191.987 232.785C189.729 235.796 192.358 243.685 192.358 243.685C192.358 243.685 199.504 256.843 161.908 253.832C161.908 253.832 137.098 248.573 139.728 215.112C139.989 211.76 134.469 203.068 151.009 198.572C151.5 193.878 153.439 189.452 156.556 185.908C159.674 182.364 163.816 179.877 168.409 178.79C174.803 177.2 181.407 176.621 187.98 177.074C200.709 178.147 211.849 187.491 211.849 200.217Z" fill="#72351C"/>
<path d="M37.243 696.91C37.243 696.91 21.483 643.41 40.243 604.03C48.1923 587.567 50.5888 568.971 47.073 551.03C45.3347 542.525 42.8209 534.197 39.563 526.15" stroke="#D0CDE1" stroke-width="2" stroke-miterlimit="10"/>
<path d="M51.183 501.23C51.183 507.79 39.313 526.8 39.313 526.8C39.313 526.8 27.443 507.8 27.443 501.23C27.443 498.081 28.6941 495.061 30.9211 492.834C33.1481 490.607 36.1685 489.355 39.318 489.355C42.4674 489.355 45.4879 490.607 47.7149 492.834C49.9419 495.061 51.193 498.081 51.193 501.23H51.183Z" fill="#E6E6E6"/>
<path d="M71.793 537.55C68.233 543.05 47.933 552.55 47.933 552.55C47.933 552.55 48.303 530.14 51.863 524.63C53.5749 521.988 56.2667 520.133 59.346 519.475C62.4254 518.817 65.6401 519.408 68.283 521.12C70.9258 522.832 72.7804 525.524 73.4387 528.603C74.0969 531.683 73.5049 534.898 71.793 537.54V537.55Z" fill="#E6E6E6"/>
<path d="M69.9429 599.62C64.0929 602.62 41.7629 600.53 41.7629 600.53C41.7629 600.53 53.3929 581.37 59.2529 578.41C62.0642 576.992 65.3235 576.75 68.3138 577.735C71.304 578.721 73.7804 580.854 75.1979 583.665C76.6155 586.476 76.8582 589.736 75.8727 592.726C74.8872 595.716 72.7542 598.192 69.9429 599.61V599.62Z" fill="#E6E6E6"/>
<path d="M58.7131 646.44C53.4431 650.34 31.093 652.1 31.093 652.1C31.093 652.1 39.323 631.25 44.593 627.35C45.8465 626.423 47.2703 625.752 48.7831 625.375C50.296 624.998 51.8683 624.923 53.4102 625.154C54.9521 625.384 56.4335 625.917 57.7697 626.72C59.106 627.523 60.2709 628.582 61.1981 629.835C62.1252 631.089 62.7963 632.512 63.1732 634.025C63.5501 635.538 63.6253 637.11 63.3945 638.652C63.1638 640.194 62.6316 641.676 61.8284 643.012C61.0251 644.348 59.9665 645.513 58.7131 646.44V646.44Z" fill="#E6E6E6"/>
<path d="M22.003 553.84C26.703 558.41 48.623 563.14 48.623 563.14C48.623 563.14 43.253 541.37 38.553 536.81C36.2751 534.742 33.2834 533.64 30.2084 533.735C27.1334 533.83 24.2153 535.115 22.0693 537.319C19.9233 539.523 18.7169 542.475 18.7046 545.551C18.6922 548.628 19.8748 551.589 22.003 553.81V553.84Z" fill="#E6E6E6"/>
<path d="M9.57301 608.76C15.423 611.76 37.753 609.67 37.753 609.67C37.753 609.67 26.123 590.51 20.263 587.55C18.871 586.848 17.3544 586.427 15.7997 586.312C14.245 586.196 12.6828 586.387 11.2022 586.875C9.72153 587.363 8.35148 588.138 7.1703 589.156C5.98911 590.173 5.01992 591.413 4.318 592.805C3.61609 594.197 3.1952 595.714 3.07942 597.269C2.96363 598.823 3.15523 600.385 3.6432 601.866C4.13117 603.347 4.90597 604.717 5.92341 605.898C6.94085 607.079 8.181 608.048 9.57301 608.75V608.76Z" fill="#E6E6E6"/>
<path d="M4.81301 663.79C10.083 667.69 32.433 669.45 32.433 669.45C32.433 669.45 24.203 648.6 18.933 644.7C17.6795 643.773 16.2557 643.102 14.7429 642.725C13.23 642.348 11.6578 642.273 10.1159 642.504C8.57395 642.735 7.09255 643.267 5.75631 644.07C4.42007 644.873 3.25516 645.932 2.32803 647.185C1.40089 648.439 0.729685 649.863 0.352807 651.375C-0.0240704 652.888 -0.0992599 654.461 0.131494 656.002C0.362247 657.544 0.894462 659.026 1.69772 660.362C2.50097 661.698 3.55954 662.863 4.81301 663.79V663.79Z" fill="#E6E6E6"/>
<path d="M907.638 697.34H0.0620117V698.967H907.638V697.34Z" fill="#2F2E41"/>
</g>
<defs>
<clipPath id="clip0">
<rect width="908.062" height="699.657" fill="white"/>
</clipPath>
</defs>
</svg>
